<svg width="22" height="22" viewBox="0 0 22 22" fill="none" xmlns="http://www.w3.org/2000/svg">
<circle cx="11" cy="11" r="10" stroke="white" stroke-width="2"/>
<path d="M12.08 14H10.24C10.24 13.5734 10.336 13.1734 10.528 12.8C10.72 12.416 10.9547 12.0907 11.232 11.824C11.5094 11.5467 11.7867 11.2854 12.064 11.04C12.3414 10.784 12.576 10.5067 12.768 10.208C12.96 9.90935 13.056 9.60535 13.056 9.29602C13.056 8.85869 12.9014 8.51735 12.592 8.27202C12.2827 8.02669 11.8667 7.90402 11.344 7.90402C10.8427 7.90402 10.4107 8.03202 10.048 8.28802C9.68537 8.54402 9.42404 8.90669 9.26404 9.37602L7.68004 8.48002C7.96804 7.73335 8.44271 7.15202 9.10404 6.73602C9.77604 6.32002 10.5387 6.11202 11.392 6.11202C12.352 6.11202 13.1734 6.38402 13.856 6.92802C14.5494 7.47202 14.896 8.22402 14.896 9.18402C14.896 9.62135 14.8 10.0374 14.608 10.432C14.416 10.8267 14.1814 11.1627 13.904 11.44C13.6267 11.7174 13.3494 11.9894 13.072 12.256C12.7947 12.512 12.56 12.7894 12.368 13.088C12.176 13.3867 12.08 13.6907 12.08 14ZM11.168 15.312C11.4987 15.312 11.7814 15.4294 12.016 15.664C12.2507 15.8987 12.368 16.1814 12.368 16.512C12.368 16.8427 12.2507 17.1254 12.016 17.36C11.7814 17.5947 11.4987 17.712 11.168 17.712C10.8374 17.712 10.5547 17.5947 10.32 17.36C10.0854 17.1254 9.96804 16.8427 9.96804 16.512C9.96804 16.1814 10.08 15.8987 10.304 15.664C10.5387 15.4294 10.8267 15.312 11.168 15.312Z" fill="white"/>
</svg>
