<svg width="22" height="22" viewBox="0 0 22 22" fill="none" xmlns="http://www.w3.org/2000/svg">
<rect x="1" y="1" width="20" height="20" rx="2" stroke="white" stroke-width="2"/>
<path d="M8.96794 12.4268L2.85518 19.0952C2.63261 19.338 2.78249 19.7307 3.11024 19.7635L8.1049 20.263H12.7365L18.8444 19.7077C19.0026 19.6933 19.1374 19.5866 19.1876 19.4359L20.2423 16.2719C20.2559 16.2312 20.2628 16.1884 20.2628 16.1454V12.1051L20.7335 6.97043C20.7684 6.58905 20.2991 6.38131 20.0403 6.66363L12.4524 14.9413C12.2939 15.1143 12.0212 15.1143 11.8627 14.9413L9.55766 12.4268C9.39913 12.2538 9.12647 12.2538 8.96794 12.4268Z" fill="white" stroke="white" stroke-width="2"/>
</svg>
