<svg width="31" height="22" viewBox="0 0 31 22" fill="none" xmlns="http://www.w3.org/2000/svg">
<path fill-rule="evenodd" clip-rule="evenodd" d="M24.2129 6.08511C24.2129 8.34125 22.3839 10.1702 20.1278 10.1702C17.8716 10.1702 16.0427 8.34125 16.0427 6.08511C16.0427 3.82896 17.8716 2 20.1278 2C22.3839 2 24.2129 3.82896 24.2129 6.08511ZM22.7802 11.5632C24.812 10.5776 26.2129 8.49497 26.2129 6.08511C26.2129 2.7244 23.4885 0 20.1278 0C16.7671 0 14.0427 2.7244 14.0427 6.08511C14.0427 8.49497 15.4435 10.5776 17.4753 11.5632C13.4456 12.5842 10.3217 15.8777 9.54724 20C9.42549 20.6481 9.36182 21.3166 9.36182 22H11.3618H28.8937H30.8937C30.8937 21.3166 30.8301 20.6481 30.7083 20C29.9339 15.8777 26.8099 12.5842 22.7802 11.5632ZM11.591 20C12.4959 16.1224 15.9745 13.234 20.1278 13.234C24.281 13.234 27.7596 16.1224 28.6645 20H11.591Z" fill="white"/>
<rect x="3.74463" y="6.55316" width="1.87234" height="9.3617" rx="0.93617" fill="white"/>
<rect y="12.1702" width="1.87234" height="9.3617" rx="0.93617" transform="rotate(-90 0 12.1702)" fill="white"/>
</svg>
